# xmcd
#
# Track frame offsets:
#	182
#	14177
#	29422
#	44110
#	57717
#	71465
#	85277
#	100875
#	113795
#	128117
#	142195
#	152817
#	163117
#	174682
#	187570
#	203742
#
# Disc length: 2940 seconds
#
# Revision: 4
# Processed by: cddbd v1.5.1PL0 Copyright (c) Steve Scherf et al.
# Submitted via: dBpowerAMP V4.0
#
DISCID=ec0b7a10
DTITLE=Various Artist - Roots Of The Blues (Volume 3)
DYEAR=1995
DGENRE=Blues
TTITLE0=Life Saver blues - Lonnie Johnson
TTITLE1=Frankie - Missisipi John Hurt
TTITLE2=Big Fat Mama Blues - Tommy Johnson
TTITLE3=Blind Arthur's Breakdown - Blind Blake
TTITLE4=Milk Cow Blues - Sleepy John Estes
TTITLE5=Preachin' the blues - Son House
TTITLE6=Do your duty - Bessie Smith
TTITLE7=Brown Skin Girls - Cripple Clarence Lofton
TTITLE8=Backdoor blues - Casey Bill Weldon
TTITLE9=Evil Hearted Woman Blues - Oscar Woods
TTITLE10=Love In Vain - Robert Johnson37
TTITLE11=Fox Chase - Sonny Terry
TTITLE12=I Done Got Wise - Big Bill Broonzy
TTITLE13=Yancey Stomp - Jimmy Yancey 
TTITLE14=Leaving Blues - Leadbelly
TTITLE15=You Gonna Miss Me When I'm Gone - Muddy Waters
EXTD=
EXTT0=
EXTT1=
EXTT2=
EXTT3=
EXTT4=
EXTT5=
EXTT6=
EXTT7=
EXTT8=
EXTT9=
EXTT10=
EXTT11=
EXTT12=
EXTT13=
EXTT14=
EXTT15=
PLAYORDER=
